# AST/ASF file generated using VICON BodyLanguage
# -----------------------------------------------
:version 1.10
:name VICON
:units
  mass 1.0
  length 0.45
  angle deg
:documentation
   .ast/.asf automatically generated from VICON data using
   VICON BodyBuilder and BodyLanguage model FoxedUp or BRILLIANT.MOD
:root
   order TX TY TZ RX RY RZ
   axis XYZ
   position 0 0 0  
   orientation 0 0 0 
:bonedata
  begin
     id 1 
     name lhipjoint
     direction 0.662698 -0.695252 0.27831 
     length 2.53073 
     axis 0 0 0  XYZ
  end
  begin
     id 2 
     name lfemur
     direction 0.34202 -0.939693 0  
     length 7.16147  
     axis 0 0 20  XYZ
    dof rx ry rz
    limits (-160.0 20.0)
           (-70.0 70.0)
           (-60.0 70.0)
  end
  begin
     id 3 
     name ltibia
     direction 0.34202 -0.939693 0   
     length 7.63967   
     axis 0 0 20   XYZ
    dof rx
    limits (-10.0 170.0)
  end
  begin
     id 4 
     name lfoot
     direction 0.0938457 -0.257721 0.961651   
     length 1.89793   
     axis -90 7.62852e-016 20   XYZ
    dof rx rz
    limits (-45.0 90.0)
           (-70.0 20.0)
  end
  begin
     id 5 
     name ltoes
     direction -0.00116841 -0.0030592 0.999995   
     length 0.955649   
     axis -90 7.62852e-016 20   XYZ
    dof rx
    limits (-90.0 20.0)
  end
  begin
     id 6 
     name rhipjoint
     direction -0.649445 -0.705948 0.282592   
     length 2.49238  
     axis 0 0 0  XYZ 
  end
  begin
     id 7 
     name rfemur
     direction -0.34202 -0.939693 0   
     length 6.90728   
     axis 0 0 -20   XYZ
    dof rx ry rz
    limits (-160.0 20.0)
           (-70.0 70.0)
           (-70.0 60.0)
  end
  begin
     id 8 
     name rtibia
     direction -0.34202 -0.939693 0   
     length 7.72868   
     axis 0 0 -20   XYZ
    dof rx
    limits (-10.0 170.0)
 end
 begin
     id 9 
     name rfoot
     direction -0.0920068 -0.252865 0.963117   
     length 1.97476  
     axis -90 -7.62852e-016 -20   XYZ
    dof rx rz
    limits (-45.0 90.0)
           (-20.0 70.0)
  end
  begin
     id 10 
     name rtoes
     direction 0.000391322 0.00230649 0.999997   
     length 0.992641   
     axis -90 -7.62852e-016 -20   XYZ
    dof rx
    limits (-90.0 20.0)
  end
  begin
     id 11 
     name lowerback
     direction -0.00875327 0.998321 -0.0572635   
     length 2.20024   
     axis 0 0 0   XYZ
    dof rx ry rz
    limits (-20.0 45.0)
           (-30.0 30.0)
           (-30.0 30.0)
  end
  begin
     id 12 
     name upperback
     direction 0.00753931 0.999972 -0.000360425   
     length 2.20538   
     axis 0 0 0   XYZ
    dof rx ry rz
    limits (-20.0 45.0)
           (-30.0 30.0)
           (-30.0 30.0)
  end
  begin
     id 13 
     name thorax
     direction 0.0117767 0.999601 0.0256663   
     length 2.21508   
     axis 0 0 0   XYZ
    dof rx ry rz
    limits (-20.0 45.0)
           (-30.0 30.0)
           (-30.0 30.0)
  end
  begin
     id 14 
     name lowerneck
     direction 0.060228 0.994909 0.0807986   
     length 1.7607   
     axis 0 0 0   XYZ
    dof rx ry rz
    limits (-20.0 45.0)
           (-30.0 30.0)
           (-30.0 30.0)
  end
  begin
     id 15 
     name upperneck
     direction -0.0563647 0.959594 -0.275685   
     length 1.75612   
     axis 0 0 0   XYZ
    dof rx ry rz
    limits (-20.0 45.0)
           (-30.0 30.0)
           (-30.0 30.0)
  end
  begin
     id 16
     name head
     direction -0.0161544 0.99458 -0.102714  
     length 1.79288  
     axis 0 0 0   XYZ
    dof rx ry rz
    limits (-20.0 45.0)
           (-30.0 30.0)
           (-30.0 30.0)
  end
  begin
     id 17 
     name lclavicle
     direction 0.93913 0.332189 -0.087669  
     length 3.52087  
     axis 0 0 0   XYZ
    dof ry rz
    limits (-20.0 10.0)
           (0.0 20.0)
  end
  begin
     id 18 
     name lhumerus
     direction 1 -4.48974e-011 -2.70836e-027   
     length 5.35289   
     axis -180 -30 -90   XYZ
    dof rx ry rz
    limits (-60.0 90.0)
           (-90.0 90.0)
           (-90.0 90.0)
  end
  begin
     id 19
     name lradius
     direction 1 -4.48961e-011 -9.76021e-027   
     length 3.27727   
     axis -180 -30 -90   XYZ
    dof rx
    limits (-10.0 170.0)
  end
  begin
     id 20
     name lwrist
     direction 1 -4.49103e-011 -2.23668e-026   
     length 1.63864   
     axis 1.44924e-014 90 90   XYZ
    dof ry
    limits (-180.0 0.0)
 end
  begin
     id 21 
     name lhand
     direction 1 3.0697e-005 0.000161777   
     length 0.54443   
     axis 2.85318e-014 90 90   XYZ
    dof rx rz
    limits (-90.0 90.0)
           (-45.0 45.0)
  end
  begin
     id 22 
     name lfingers
     direction 1 -4.49027e-011 -8.9447e-026   
     length 0.438912   
     axis 5.70628e-014 90 90   XYZ
    dof rx
    limits (0.0 90.0)
  end
  begin
     id 23
     name lthumb
     direction 0.707058 2.6516e-005 0.707156   
     length 0.630274   
     axis -90 45 -3.53137e-014   XYZ
    dof rx rz
    limits (-45.0 45.0)
           (-45.0 45.0)
  end
  begin
     id 24 
     name rclavicle
     direction -0.95274 0.284984 -0.105215   
     length 3.43401  
     axis 0 0 0   XYZ 
    dof ry rz
    limits (-10.0 20.0)
           (-20.0 0.0)
  end
  begin
     id 25 
     name rhumerus
     direction -0.999999 -0.000575019 -0.00106829  
     length 5.52077   
     axis -180 30 90   XYZ
    dof rx ry rz
    limits (-90.0 60.0)
           (-90.0 90.0)
           (-90.0 90.0)
  end
  begin
     id 26 
     name rradius
     direction -1 -4.4879e-011 -6.35415e-027   
     length 3.32364   
     axis -180 30 90   XYZ
    dof rx
    limits (-10.0 170.0)
  end
  begin
     id 27 
     name rwrist
     direction -1 -4.49048e-011 -9.98542e-027   
     length 1.66182   
     axis 6.32482e-015 -90 -90   XYZ
    dof ry
    limits (-180.0 0.0)
  end
  begin
     id 28
     name rhand
     direction -1 -4.48978e-011 -1.99771e-026   
     length 0.732235   
     axis 1.27479e-014 -90 -90   XYZ
    dof rx rz
    limits (-90.0 90.0)
           (-45.0 45.0)
  end
  begin
     id 29
     name rfingers
     direction -1 -4.49144e-011 -3.99245e-026   
     length 0.590347   
     axis 2.5496e-014 -90 -90   XYZ
    dof rx
    limits (0.0 90.0)
  end
  begin
     id 30
     name rthumb
     direction -0.707107 -6.35121e-011 0.707107   
     length 0.847624   
     axis -90 -45 -2.82974e-014   XYZ
    dof rx rz
    limits (-45.0 45.0)
           (-45.0 45.0)
  end
:hierarchy
  begin
    root lhipjoint rhipjoint lowerback
    lhipjoint lfemur
    lfemur ltibia
    ltibia lfoot
    lfoot ltoes
    rhipjoint rfemur
    rfemur rtibia
    rtibia rfoot
    rfoot rtoes
    lowerback upperback
    upperback thorax
    thorax lowerneck lclavicle rclavicle
    lowerneck upperneck
    upperneck head
    lclavicle lhumerus
    lhumerus lradius
    lradius lwrist
    lwrist lhand lthumb
    lhand lfingers
    rclavicle rhumerus
    rhumerus rradius
    rradius rwrist
    rwrist rhand rthumb
    rhand rfingers
  end

#!OML:ASF G:\Work\Work\Patient Classification 1\Elijah\terrain1\Elijah.ASF
:FULLY-SPECIFIED
:DEGREES
713
root 26.0662 20.6931 3.705 185.828 -18.149 176.281
lowerback 5.49162 5.03416 0.936627
upperback -0.557884 6.48821 -4.63571
thorax -2.99944 3.13105 -5.82434
lowerneck 8.08898 20.2579 29.6338
upperneck 12.0722 32.2625 -26.7141
head 12.3982 15.9547 -9.16261
rclavicle 5.09883e-014 -7.15625e-015
rhumerus -43.361 -12.9217 -84.1562
rradius 42.504
rwrist -3.90948
rhand -17.6834 23.8161
rfingers 7.12502
rthumb 8.5759 -5.98975
lclavicle 5.09883e-014 -7.15625e-015
lhumerus -37.5211 -21.2064 85.3551
lradius 63.1658
lwrist 12.8904
lhand -16.3081 21.8265
lfingers 7.12502
lthumb 9.90289 51.5736
rfemur -35.6692 1.98047 13.943
rtibia 70.4657
rfoot -12.0352 -5.70596
rtoes -28.5259
lfemur -18.6328 -8.33147 -29.8478
ltibia 31.5353
lfoot -11.3869 -6.7618
ltoes 22.2738
714
root 26.0602 20.6946 3.63303 186.038 -18.6649 176.042
lowerback 5.59201 4.91686 0.768297
upperback -0.668456 6.31867 -4.58379
thorax -3.21236 3.0435 -5.6844
lowerneck 8.08557 20.3529 29.1353
upperneck 12.1935 32.3378 -26.5601
head 12.3341 15.9611 -9.03509
rclavicle 3.58806e-014 1.11319e-014
rhumerus -43.3775 -12.5834 -84.0784
rradius 42.2293
rwrist -4.41693
rhand -17.704 23.5949
rfingers 7.12502
rthumb 8.55598 -6.21175
lclavicle 3.58806e-014 1.11319e-014
lhumerus -37.7447 -21.0155 85.6164
lradius 63.7023
lwrist 12.9814
lhand -16.6969 22.2053
lfingers 7.12502
lthumb 9.52778 51.9699
rfemur -35.7138 2.98625 13.1846
rtibia 68.2432
rfoot -13.0489 -6.28618
rtoes -23.913
lfemur -18.4506 -8.58027 -30.0356
ltibia 31.496
lfoot -11.3629 -7.11974
ltoes 22.5351
715
root 26.0646 20.6904 3.56566 186.295 -18.7261 176.092
lowerback 5.13863 4.8432 0.443538
upperback -0.361639 6.2504 -4.10736
thorax -2.73522 3.03918 -4.93723
lowerneck 7.59579 20.7682 27.8227
upperneck 12.0529 32.7621 -26.7464
head 12.2923 16.0372 -8.77084
rclavicle -5.6107e-014 1.63003e-014
rhumerus -42.3086 -11.7169 -83.7451
rradius 41.6229
rwrist -4.63157
rhand -17.7159 23.6637
rfingers 7.12502
rthumb 8.54451 -6.14346
lclavicle -5.6107e-014 1.63003e-014
lhumerus -37.1272 -19.9018 86.0276
lradius 64.0753
lwrist 12.9045
lhand -16.6326 22.0424
lfingers 7.12502
lthumb 9.58983 51.8041
rfemur -36.0852 4.54572 12.6795
rtibia 65.8946
rfoot -13.7345 -6.72472
rtoes -22.186
lfemur -18.5276 -8.62089 -29.8835
ltibia 31.4693
lfoot -11.4329 -7.24327
ltoes 22.6024
716
root 26.0823 20.7005 3.47726 186.226 -19.5534 176.201
lowerback 5.0606 4.58235 0.245289
upperback -0.127506 5.92174 -3.722
thorax -2.53843 2.89045 -4.38667
lowerneck 7.28382 20.9712 26.8681
upperneck 12.0809 32.9143 -26.6814
head 12.2017 16.0296 -8.56973
rclavicle 1.31645e-013 -1.94809e-014
rhumerus -41.6815 -11.6726 -83.4018
rradius 41.0094
rwrist -4.22644
rhand -17.9637 23.7194
rfingers 7.12502
rthumb 8.30534 -6.0973
lclavicle 1.31645e-013 -1.94809e-014
lhumerus -36.8725 -19.13 86.2514
lradius 64.467
lwrist 12.8307
lhand -16.6417 22.3543
lfingers 7.12502
lthumb 9.58107 52.1165
rfemur -35.6718 5.79552 12.4551
rtibia 63.3718
rfoot -14.3023 -7.30343
rtoes -22.1913
lfemur -18.1707 -8.96618 -29.5695
ltibia 31.4704
lfoot -11.4333 -7.6966
ltoes 22.6682
717
root 26.0884 20.7055 3.40257 186.332 -20.0901 176.505
lowerback 4.96865 4.47114 0.480802
upperback -0.208882 5.80459 -3.55593
thorax -2.57365 2.83406 -4.33465
lowerneck 7.45453 20.9087 26.645
upperneck 12.071 32.8225 -26.678
head 12.096 15.9935 -8.60123
rclavicle 2.29099e-014 -2.54444e-014
rhumerus -41.5745 -12.0109 -83.2142
rradius 40.4922
rwrist -3.8096
rhand -18.2773 23.719
rfingers 7.12502
rthumb 8.00267 -6.10951
lclavicle 2.29099e-014 -2.54444e-014
lhumerus -36.9278 -18.7391 86.3344
lradius 64.704
lwrist 12.789
lhand -16.8548 22.5003
lfingers 7.12502
lthumb 9.37549 52.2718
rfemur -35.7001 7.15536 12.2262
rtibia 60.8142
rfoot -14.5789 -7.32267
rtoes -21.8978
lfemur -18.1496 -9.29135 -29.1142
ltibia 31.4899
lfoot -11.4969 -7.85255
ltoes 22.595
718
root 26.0863 20.7027 3.33013 186.516 -20.6273 176.485
lowerback 4.8894 4.3689 0.513413
upperback -0.309485 5.67454 -3.5155
thorax -2.64408 2.76863 -4.30194
lowerneck 7.85351 20.8034 26.7299
upperneck 11.9756 32.7533 -26.8485
head 12.0293 15.9997 -8.74339
rclavicle 1.63997e-014 2.14687e-014
rhumerus -41.5096 -11.8905 -83.2495
rradius 39.9951
rwrist -4.02442
rhand -18.4634 23.5961
rfingers 7.12502
rthumb 7.82308 -6.2392
lclavicle 1.63997e-014 2.14687e-014
lhumerus -37.0792 -18.4846 86.4076
lradius 64.8457
lwrist 12.8301
lhand -17.2735 22.3319
lfingers 7.12502
lthumb 8.97146 52.1211
rfemur -35.6297 8.29221 11.5529
rtibia 58.2223
rfoot -15.0683 -6.61785
rtoes -20.7536
lfemur -18.0725 -9.60727 -29.0517
ltibia 31.5055
lfoot -11.5365 -8.05536
ltoes 22.7048
719
root 26.0861 20.7032 3.25219 186.777 -21.3978 176.152
lowerback 4.64968 4.17807 0.108615
upperback -0.340411 5.40302 -3.42313
thorax -2.60878 2.63938 -3.94691
lowerneck 8.25122 20.7168 26.6533
upperneck 12.0012 32.7018 -26.9658
head 11.9703 16.0009 -8.85017
rclavicle 3.62782e-015 4.13472e-014
rhumerus -41.4587 -11.4201 -83.2631
rradius 39.6151
rwrist -4.56904
rhand -18.4825 23.2709
rfingers 7.12502
rthumb 7.80469 -6.56507
lclavicle 3.62782e-015 4.13472e-014
lhumerus -37.2211 -18.0478 86.6242
lradius 64.9186
lwrist 12.7181
lhand -17.752 22.8625
lfingers 7.12502
lthumb 8.50969 52.6711
rfemur -35.3152 9.31734 10.5795
rtibia 55.5847
rfoot -15.4462 -5.61716
rtoes -22.3066
lfemur -17.9384 -10.0043 -29.2688
ltibia 31.5484
lfoot -11.4458 -8.5428
ltoes 23.2989
